# xmcd CD database file
#
# Track frame offsets:
#	150
#	14747
#	34362
#
# Disc length: 650 seconds
#
# Revision: 2
# Processed by: cddbd v1.5.1PL2 Copyright (c) Steve Scherf et al.
# Submitted via: CDex 1.60beta1-cs1
#
DISCID=23028803
DTITLE=Mink - ぜったい きっと 好き
DYEAR=1995
DGENRE=JPop
TTITLE0=ぜったい きっと 好き
TTITLE1=あしたがほほえむ
TTITLE2=ぜったい きっと 好き (オリジナル・カラオケ)
EXTD=YEAR: 1995
EXTT0=
EXTT1=
EXTT2=
PLAYORDER=
